<svg xmlns="http://www.w3.org/2000/svg" width="199" height="46" fill="none">
  <g clip-path="url(#a)">
    <path fill="#EB5627" d="m46.189 36.1-15.754 9.998L14.68 36.1V16.147l15.754-9.955 15.754 9.955V36.1Z"></path>
    <path fill="#262834" d="m43.7 19.68-13.265 7.973-13.264-7.972v2.5l13.264 7.972L43.7 22.18v-2.5Z"></path>
    <path fill="#262834" d="m43.7 28.774-13.265 7.973-13.264-7.973v2.543l13.264 7.972L43.7 31.317v-2.543Z"></path>
    <path fill="#fff" d="M90.519 15.885c1.803 0 3.219.563 3.219.563.043.087-.043.303-.172.39 0 0-1.374-.563-3.047-.563-2.662 0-4.122 1.04-4.122 3.378 0 2.383 2.662 2.903 3.735 3.249 2.018.606 4.293 1.213 4.293 3.898 0 2.296-1.502 3.725-4.507 3.725-2.405 0-3.907-.78-3.907-.78-.043-.086.043-.303.172-.346.515.26 1.76.78 3.692.78 2.404 0 4.164-.953 4.164-3.335 0-2.469-2.06-2.946-4.035-3.509-1.932-.52-3.993-1.256-3.993-3.595.043-2.512 1.546-3.855 4.508-3.855ZM111.639 15.885c2.232 0 3.648 1.473 3.648 3.942v10.309c-.085.086-.257.086-.386 0V19.87c0-2.252-1.202-3.595-3.305-3.595-1.975 0-3.692.953-4.851 4.072v9.789c-.086.086-.258.086-.386 0V19.87c0-2.252-1.202-3.595-3.305-3.595-1.975 0-3.692.953-4.851 3.985v9.876c-.086.086-.258.086-.387 0V16.232c.086-.087.258-.087.387 0v3.205c1.116-2.426 2.618-3.508 4.851-3.508 2.145 0 3.519 1.343 3.648 3.595 1.031-2.296 2.662-3.639 4.937-3.639ZM123.915 15.885c2.92 0 4.25 1.3 4.25 4.505v9.746a.471.471 0 0 1-.343 0V26.54c-.516 2.338-2.748 3.854-5.108 3.854-2.705 0-4.078-1.429-4.078-3.941 0-2.382 1.631-4.028 4.808-4.028 1.588 0 3.348.173 4.378.303v-2.34c0-2.815-.987-4.114-3.949-4.114-2.189 0-4.035.736-4.035.736-.086-.043-.172-.26-.172-.39 0 0 2.06-.736 4.249-.736Zm-.386 6.93c-2.919 0-4.55 1.386-4.55 3.726 0 2.209 1.245 3.551 3.606 3.551 2.876 0 5.194-1.992 5.194-5.457v-1.516c-.987-.13-2.705-.303-4.25-.303ZM137.094 15.885c1.116 0 1.846.347 2.147.52-.044.13-.129.303-.258.346-.515-.303-1.116-.52-2.018-.52-1.931 0-3.219 1.56-4.163 4.072v9.832c-.087.044-.258.044-.387 0V16.189c.086-.043.258-.043.387 0v3.335c1.201-2.988 2.832-3.638 4.292-3.638ZM147.783 30.266c-.429.13-.944.216-1.76.216-2.79 0-3.477-1.732-3.477-4.72v-9.227H140.4s-.043-.086-.043-.173c0-.173.043-.173.043-.173h2.146v-2.815c.086-.13.258-.174.386-.174v2.946h4.508s.043.043.043.173-.043.173-.043.173h-4.508v9.183c0 2.815.601 4.331 3.135 4.331.987 0 1.673-.173 1.673-.173.043.173.086.303.043.433Z"></path>
    <path fill="#fff" d="M90.661 15.759c1.803 0 3.22.56 3.22.56.042.086-.043.301-.172.388 0 0-1.374-.56-3.048-.56-2.661 0-4.121 1.034-4.121 3.361 0 2.37 2.662 2.887 3.735 3.232 2.017.603 4.293 1.207 4.293 3.879 0 2.284-1.503 3.706-4.508 3.706-2.404 0-3.906-.776-3.906-.776-.043-.086.043-.302.172-.345.515.26 1.76.776 3.691.776 2.404 0 4.164-.948 4.164-3.318 0-2.456-2.06-2.93-4.035-3.49-1.931-.518-3.992-1.25-3.992-3.578.043-2.5 1.545-3.835 4.507-3.835ZM111.782 15.759c2.232 0 3.648 1.465 3.648 3.921v10.257c-.086.086-.258.086-.386 0V19.724c0-2.241-1.202-3.577-3.306-3.577-1.974 0-3.692.948-4.85 4.05v9.74c-.086.086-.258.086-.386 0V19.724c0-2.241-1.202-3.577-3.306-3.577-1.974 0-3.692.948-4.85 3.964v9.826c-.087.086-.258.086-.387 0V16.104c.086-.087.257-.087.386 0v3.189c1.116-2.414 2.619-3.49 4.851-3.49 2.146 0 3.52 1.335 3.648 3.576 1.032-2.284 2.662-3.62 4.938-3.62ZM124.058 15.759c2.919 0 4.25 1.293 4.25 4.482v9.696a.475.475 0 0 1-.344 0V26.36c-.515 2.328-2.747 3.836-5.108 3.836-2.704 0-4.078-1.422-4.078-3.922 0-2.37 1.631-4.008 4.808-4.008 1.589 0 3.349.173 4.379.302V20.24c0-2.802-.987-4.094-3.95-4.094-2.189 0-4.035.732-4.035.732-.085-.043-.172-.258-.172-.388 0 0 2.061-.732 4.25-.732Zm-.386 6.895c-2.919 0-4.55 1.38-4.55 3.706 0 2.198 1.245 3.534 3.606 3.534 2.876 0 5.193-1.982 5.193-5.43v-1.508c-.987-.13-2.704-.302-4.249-.302ZM137.237 15.759c1.116 0 1.846.345 2.146.517-.043.13-.129.302-.257.345-.516-.302-1.117-.517-2.018-.517-1.932 0-3.219 1.551-4.164 4.05v9.783c-.086.043-.257.043-.386 0V16.06c.086-.043.257-.043.386 0v3.319c1.202-2.974 2.833-3.62 4.293-3.62ZM147.926 30.067c-.429.129-.945.215-1.76.215-2.791 0-3.477-1.724-3.477-4.697v-9.18h-2.147s-.042-.085-.042-.172c0-.172.042-.172.042-.172h2.147V13.26c.086-.13.258-.173.386-.173v2.931h4.507s.044.043.044.172c0 .13-.044.173-.044.173h-4.507v9.136c0 2.801.601 4.31 3.134 4.31.987 0 1.674-.173 1.674-.173.043.172.086.302.043.43ZM152.477 17.483c.729-1.078 1.931-1.724 3.82-1.724 3.005 0 4.979 1.81 4.979 7.24s-1.974 7.24-4.979 7.24c-1.889 0-3.048-.646-3.82-1.724v1.293s-.43.173-1.331.173c-.859 0-1.289-.173-1.289-.173V10.287s.43-.172 1.289-.172c.901 0 1.331.172 1.331.172v7.197Zm2.876.474c-1.846 0-2.876 1.552-2.876 3.361v3.405c0 1.81 1.03 3.405 2.876 3.405 2.103 0 3.176-1.12 3.176-5.086 0-3.965-1.03-5.085-3.176-5.085ZM165.998 23.861c.215 3.146 1.459 4.18 3.691 4.18 1.889 0 3.134-.775 3.134-.775.472.43.815 1.12.858 1.896 0 0-1.502 1.12-4.378 1.12-4.078 0-5.967-2.5-5.967-7.326 0-5 2.361-7.154 5.881-7.154 3.262 0 5.237 1.81 5.237 5.344 0 1.68-.3 2.715-.3 2.715h-8.156Zm3.133-5.99c-1.717 0-2.919 1.12-3.133 4.094h5.666c.043-.216.086-.646.086-1.207 0-1.551-.644-2.887-2.619-2.887ZM178.918 23.861c.215 3.146 1.46 4.18 3.692 4.18 1.889 0 3.134-.775 3.134-.775.472.43.815 1.12.858 1.896 0 0-1.502 1.12-4.379 1.12-4.078 0-5.966-2.5-5.966-7.326 0-5 2.361-7.154 5.881-7.154 3.262 0 5.237 1.81 5.237 5.344 0 1.68-.301 2.715-.301 2.715h-8.156Zm3.134-5.99c-1.717 0-2.919 1.12-3.134 4.094h5.666c.044-.216.087-.646.087-1.207 0-1.551-.644-2.887-2.619-2.887ZM194.115 15.759c2.576 0 3.734.732 3.734.732 0 .69-.257 1.466-.686 1.896 0 0-1.288-.43-2.791-.43-1.803 0-2.704.646-2.704 1.895 0 1.293 1.674 1.638 3.348 2.198 1.718.56 3.52 1.38 3.52 3.965 0 2.672-1.674 4.266-5.022 4.266-2.791 0-4.422-.947-4.422-.947 0-.776.258-1.509.73-1.983 0 0 1.717.647 3.563.647 1.631 0 2.532-.604 2.532-1.896 0-1.466-1.459-1.767-3.004-2.242-1.803-.517-3.735-1.292-3.735-3.92-.043-2.5 1.545-4.181 4.937-4.181Z"></path>
    <path fill="#B0B2B2" d="m44.472.072-7.598 4.826 2.06 1.25 5.538-3.49 13.736 8.662v17.41l-3.219 2.068v2.543l5.237-3.318V10.07L44.472.072ZM16.355.072l7.598 4.826-2.018 1.25-5.58-3.49L2.618 11.32v17.41l3.263 2.068v2.543L.644 30.023V10.07L16.354.072Z"></path>
  </g>
  <defs>
    <clipPath id="a"><path fill="#fff" d="M0 0h199v46H0z"></path></clipPath>
  </defs>
</svg>